<mxfile host="app.diagrams.net" agent="Mozilla/5.0 (Windows NT 10.0; Win64; x64) AppleWebKit/537.36 (KHTML, like Gecko) Chrome/133.0.0.0 Safari/537.36" version="26.0.13">
  <diagram name="Página-1" id="JJhUgdOj7eA0Xx88P7VJ">
    <mxGraphModel dx="1552" dy="866" grid="1" gridSize="10" guides="1" tooltips="1" connect="1" arrows="1" fold="1" page="1" pageScale="1" pageWidth="827" pageHeight="1169" math="0" shadow="0">
      <root>
        <mxCell id="0" />
        <mxCell id="1" parent="0" />
        <mxCell id="RxmuefyKAK2Er1jDZo_G-1" value="Usuario" style="rounded=0;whiteSpace=wrap;html=1;" vertex="1" parent="1">
          <mxGeometry x="80" y="40" width="120" height="40" as="geometry" />
        </mxCell>
        <mxCell id="RxmuefyKAK2Er1jDZo_G-2" value="App" style="rounded=0;whiteSpace=wrap;html=1;" vertex="1" parent="1">
          <mxGeometry x="280" y="40" width="120" height="40" as="geometry" />
        </mxCell>
        <mxCell id="RxmuefyKAK2Er1jDZo_G-3" value="Api" style="rounded=0;whiteSpace=wrap;html=1;" vertex="1" parent="1">
          <mxGeometry x="480" y="40" width="120" height="40" as="geometry" />
        </mxCell>
        <mxCell id="RxmuefyKAK2Er1jDZo_G-4" value="Base de datos" style="rounded=0;whiteSpace=wrap;html=1;" vertex="1" parent="1">
          <mxGeometry x="680" y="40" width="120" height="40" as="geometry" />
        </mxCell>
        <mxCell id="RxmuefyKAK2Er1jDZo_G-5" value="" style="endArrow=none;html=1;rounded=0;entryX=0.5;entryY=1;entryDx=0;entryDy=0;" edge="1" parent="1" target="RxmuefyKAK2Er1jDZo_G-1">
          <mxGeometry width="50" height="50" relative="1" as="geometry">
            <mxPoint x="130" y="2697.2727272727275" as="sourcePoint" />
            <mxPoint x="210" y="270" as="targetPoint" />
          </mxGeometry>
        </mxCell>
        <mxCell id="RxmuefyKAK2Er1jDZo_G-6" value="" style="endArrow=none;html=1;rounded=0;entryX=0.5;entryY=1;entryDx=0;entryDy=0;" edge="1" parent="1">
          <mxGeometry width="50" height="50" relative="1" as="geometry">
            <mxPoint x="330" y="2670" as="sourcePoint" />
            <mxPoint x="339.33000000000004" y="80" as="targetPoint" />
          </mxGeometry>
        </mxCell>
        <mxCell id="RxmuefyKAK2Er1jDZo_G-7" value="" style="endArrow=none;html=1;rounded=0;entryX=0.5;entryY=1;entryDx=0;entryDy=0;" edge="1" parent="1">
          <mxGeometry width="50" height="50" relative="1" as="geometry">
            <mxPoint x="539" y="2670" as="sourcePoint" />
            <mxPoint x="539.33" y="80" as="targetPoint" />
          </mxGeometry>
        </mxCell>
        <mxCell id="RxmuefyKAK2Er1jDZo_G-8" value="" style="endArrow=none;html=1;rounded=0;entryX=0.5;entryY=1;entryDx=0;entryDy=0;" edge="1" parent="1">
          <mxGeometry width="50" height="50" relative="1" as="geometry">
            <mxPoint x="740" y="2670" as="sourcePoint" />
            <mxPoint x="739.33" y="80" as="targetPoint" />
          </mxGeometry>
        </mxCell>
        <mxCell id="RxmuefyKAK2Er1jDZo_G-10" value="Navega por la aplicación&amp;nbsp;" style="text;html=1;align=center;verticalAlign=middle;resizable=0;points=[];autosize=1;strokeColor=none;fillColor=none;" vertex="1" parent="1">
          <mxGeometry x="150" y="128" width="160" height="30" as="geometry" />
        </mxCell>
        <mxCell id="RxmuefyKAK2Er1jDZo_G-11" value="" style="endArrow=classic;html=1;rounded=0;" edge="1" parent="1">
          <mxGeometry width="50" height="50" relative="1" as="geometry">
            <mxPoint x="140" y="160" as="sourcePoint" />
            <mxPoint x="340" y="160" as="targetPoint" />
          </mxGeometry>
        </mxCell>
        <mxCell id="RxmuefyKAK2Er1jDZo_G-12" value="" style="endArrow=classic;html=1;rounded=0;" edge="1" parent="1">
          <mxGeometry width="50" height="50" relative="1" as="geometry">
            <mxPoint x="140" y="220" as="sourcePoint" />
            <mxPoint x="340" y="220" as="targetPoint" />
          </mxGeometry>
        </mxCell>
        <mxCell id="RxmuefyKAK2Er1jDZo_G-13" value="Ve perfil" style="text;html=1;align=center;verticalAlign=middle;resizable=0;points=[];autosize=1;strokeColor=none;fillColor=none;" vertex="1" parent="1">
          <mxGeometry x="195" y="188" width="70" height="30" as="geometry" />
        </mxCell>
        <mxCell id="RxmuefyKAK2Er1jDZo_G-14" value="" style="endArrow=classic;html=1;rounded=0;edgeStyle=orthogonalEdgeStyle;curved=1;" edge="1" parent="1">
          <mxGeometry width="50" height="50" relative="1" as="geometry">
            <mxPoint x="340" y="220" as="sourcePoint" />
            <mxPoint x="340" y="240" as="targetPoint" />
            <Array as="points">
              <mxPoint x="370" y="220" />
              <mxPoint x="370" y="240" />
            </Array>
          </mxGeometry>
        </mxCell>
        <mxCell id="RxmuefyKAK2Er1jDZo_G-15" value="" style="endArrow=classic;html=1;rounded=0;" edge="1" parent="1">
          <mxGeometry width="50" height="50" relative="1" as="geometry">
            <mxPoint x="140" y="300" as="sourcePoint" />
            <mxPoint x="340" y="300" as="targetPoint" />
          </mxGeometry>
        </mxCell>
        <mxCell id="RxmuefyKAK2Er1jDZo_G-17" value="Ve listado de opciones" style="text;html=1;align=center;verticalAlign=middle;resizable=0;points=[];autosize=1;strokeColor=none;fillColor=none;" vertex="1" parent="1">
          <mxGeometry x="160" y="260" width="140" height="30" as="geometry" />
        </mxCell>
        <mxCell id="RxmuefyKAK2Er1jDZo_G-18" value="" style="endArrow=classic;html=1;rounded=0;" edge="1" parent="1">
          <mxGeometry width="50" height="50" relative="1" as="geometry">
            <mxPoint x="140" y="350" as="sourcePoint" />
            <mxPoint x="340" y="350" as="targetPoint" />
          </mxGeometry>
        </mxCell>
        <mxCell id="RxmuefyKAK2Er1jDZo_G-19" value="" style="endArrow=classic;html=1;rounded=0;edgeStyle=orthogonalEdgeStyle;curved=1;" edge="1" parent="1">
          <mxGeometry width="50" height="50" relative="1" as="geometry">
            <mxPoint x="340" y="310" as="sourcePoint" />
            <mxPoint x="340" y="330" as="targetPoint" />
            <Array as="points">
              <mxPoint x="370" y="310" />
              <mxPoint x="370" y="330" />
            </Array>
          </mxGeometry>
        </mxCell>
        <mxCell id="RxmuefyKAK2Er1jDZo_G-20" value="Selecciona Acerca de" style="text;html=1;align=center;verticalAlign=middle;resizable=0;points=[];autosize=1;strokeColor=none;fillColor=none;" vertex="1" parent="1">
          <mxGeometry x="170" y="320" width="140" height="30" as="geometry" />
        </mxCell>
        <mxCell id="RxmuefyKAK2Er1jDZo_G-22" value="" style="endArrow=classic;html=1;rounded=0;edgeStyle=orthogonalEdgeStyle;curved=1;" edge="1" parent="1">
          <mxGeometry width="50" height="50" relative="1" as="geometry">
            <mxPoint x="340" y="380" as="sourcePoint" />
            <mxPoint x="340" y="400" as="targetPoint" />
            <Array as="points">
              <mxPoint x="370" y="380" />
              <mxPoint x="370" y="400" />
            </Array>
          </mxGeometry>
        </mxCell>
        <mxCell id="RxmuefyKAK2Er1jDZo_G-23" value="" style="endArrow=none;html=1;rounded=0;startFill=1;startArrow=classic;" edge="1" parent="1">
          <mxGeometry width="50" height="50" relative="1" as="geometry">
            <mxPoint x="140" y="400" as="sourcePoint" />
            <mxPoint x="340" y="400" as="targetPoint" />
          </mxGeometry>
        </mxCell>
        <mxCell id="RxmuefyKAK2Er1jDZo_G-24" value="Información en general&amp;nbsp;&lt;div&gt;de la aplicación&amp;nbsp;&lt;/div&gt;" style="text;html=1;align=center;verticalAlign=middle;resizable=0;points=[];autosize=1;strokeColor=none;fillColor=none;" vertex="1" parent="1">
          <mxGeometry x="165" y="365" width="150" height="40" as="geometry" />
        </mxCell>
        <mxCell id="RxmuefyKAK2Er1jDZo_G-25" value="" style="endArrow=classic;html=1;rounded=0;" edge="1" parent="1">
          <mxGeometry width="50" height="50" relative="1" as="geometry">
            <mxPoint x="140" y="450" as="sourcePoint" />
            <mxPoint x="340" y="450" as="targetPoint" />
          </mxGeometry>
        </mxCell>
        <mxCell id="RxmuefyKAK2Er1jDZo_G-26" value="Como rentar&amp;nbsp;" style="text;html=1;align=center;verticalAlign=middle;resizable=0;points=[];autosize=1;strokeColor=none;fillColor=none;" vertex="1" parent="1">
          <mxGeometry x="175" y="418" width="90" height="30" as="geometry" />
        </mxCell>
        <mxCell id="RxmuefyKAK2Er1jDZo_G-27" value="" style="endArrow=classic;html=1;rounded=0;edgeStyle=orthogonalEdgeStyle;curved=1;" edge="1" parent="1">
          <mxGeometry width="50" height="50" relative="1" as="geometry">
            <mxPoint x="340" y="480" as="sourcePoint" />
            <mxPoint x="340" y="500" as="targetPoint" />
            <Array as="points">
              <mxPoint x="370" y="480" />
              <mxPoint x="370" y="500" />
            </Array>
          </mxGeometry>
        </mxCell>
        <mxCell id="RxmuefyKAK2Er1jDZo_G-28" value="" style="endArrow=none;html=1;rounded=0;startFill=1;startArrow=classic;" edge="1" parent="1">
          <mxGeometry width="50" height="50" relative="1" as="geometry">
            <mxPoint x="140" y="510" as="sourcePoint" />
            <mxPoint x="340" y="510" as="targetPoint" />
          </mxGeometry>
        </mxCell>
        <mxCell id="RxmuefyKAK2Er1jDZo_G-29" value="Información de como rentar&amp;nbsp;" style="text;html=1;align=center;verticalAlign=middle;resizable=0;points=[];autosize=1;strokeColor=none;fillColor=none;" vertex="1" parent="1">
          <mxGeometry x="155" y="480" width="170" height="30" as="geometry" />
        </mxCell>
        <mxCell id="RxmuefyKAK2Er1jDZo_G-30" value="" style="endArrow=classic;html=1;rounded=0;" edge="1" parent="1">
          <mxGeometry width="50" height="50" relative="1" as="geometry">
            <mxPoint x="140" y="560" as="sourcePoint" />
            <mxPoint x="340" y="560" as="targetPoint" />
          </mxGeometry>
        </mxCell>
        <mxCell id="RxmuefyKAK2Er1jDZo_G-31" value="Términos y condiciones" style="text;html=1;align=center;verticalAlign=middle;resizable=0;points=[];autosize=1;strokeColor=none;fillColor=none;" vertex="1" parent="1">
          <mxGeometry x="165" y="530" width="150" height="30" as="geometry" />
        </mxCell>
        <mxCell id="RxmuefyKAK2Er1jDZo_G-36" value="" style="endArrow=classic;html=1;rounded=0;" edge="1" parent="1">
          <mxGeometry width="50" height="50" relative="1" as="geometry">
            <mxPoint x="340" y="584" as="sourcePoint" />
            <mxPoint x="540" y="584" as="targetPoint" />
          </mxGeometry>
        </mxCell>
        <mxCell id="RxmuefyKAK2Er1jDZo_G-37" value="Post del documento&amp;nbsp;" style="text;html=1;align=center;verticalAlign=middle;resizable=0;points=[];autosize=1;strokeColor=none;fillColor=none;" vertex="1" parent="1">
          <mxGeometry x="380" y="555" width="130" height="30" as="geometry" />
        </mxCell>
        <mxCell id="RxmuefyKAK2Er1jDZo_G-38" value="" style="endArrow=classic;html=1;rounded=0;" edge="1" parent="1">
          <mxGeometry width="50" height="50" relative="1" as="geometry">
            <mxPoint x="540" y="610" as="sourcePoint" />
            <mxPoint x="740" y="610" as="targetPoint" />
          </mxGeometry>
        </mxCell>
        <mxCell id="RxmuefyKAK2Er1jDZo_G-39" value="Post del documento" style="text;html=1;align=center;verticalAlign=middle;resizable=0;points=[];autosize=1;strokeColor=none;fillColor=none;" vertex="1" parent="1">
          <mxGeometry x="585" y="580" width="130" height="30" as="geometry" />
        </mxCell>
        <mxCell id="RxmuefyKAK2Er1jDZo_G-40" value="" style="endArrow=none;html=1;rounded=0;startFill=1;startArrow=classic;" edge="1" parent="1">
          <mxGeometry width="50" height="50" relative="1" as="geometry">
            <mxPoint x="540" y="650" as="sourcePoint" />
            <mxPoint x="740" y="650" as="targetPoint" />
          </mxGeometry>
        </mxCell>
        <mxCell id="RxmuefyKAK2Er1jDZo_G-41" value="Documento" style="text;html=1;align=center;verticalAlign=middle;resizable=0;points=[];autosize=1;strokeColor=none;fillColor=none;" vertex="1" parent="1">
          <mxGeometry x="610" y="628" width="80" height="30" as="geometry" />
        </mxCell>
        <mxCell id="RxmuefyKAK2Er1jDZo_G-42" value="" style="endArrow=none;html=1;rounded=0;startFill=1;startArrow=classic;" edge="1" parent="1">
          <mxGeometry width="50" height="50" relative="1" as="geometry">
            <mxPoint x="340" y="670" as="sourcePoint" />
            <mxPoint x="540" y="670" as="targetPoint" />
          </mxGeometry>
        </mxCell>
        <mxCell id="RxmuefyKAK2Er1jDZo_G-43" value="Documento" style="text;html=1;align=center;verticalAlign=middle;resizable=0;points=[];autosize=1;strokeColor=none;fillColor=none;" vertex="1" parent="1">
          <mxGeometry x="400" y="640" width="80" height="30" as="geometry" />
        </mxCell>
        <mxCell id="RxmuefyKAK2Er1jDZo_G-44" value="" style="endArrow=none;html=1;rounded=0;startFill=1;startArrow=classic;" edge="1" parent="1">
          <mxGeometry width="50" height="50" relative="1" as="geometry">
            <mxPoint x="140" y="690" as="sourcePoint" />
            <mxPoint x="340" y="690" as="targetPoint" />
          </mxGeometry>
        </mxCell>
        <mxCell id="RxmuefyKAK2Er1jDZo_G-45" value="Ve documento&amp;nbsp;" style="text;html=1;align=center;verticalAlign=middle;resizable=0;points=[];autosize=1;strokeColor=none;fillColor=none;" vertex="1" parent="1">
          <mxGeometry x="175" y="650" width="100" height="30" as="geometry" />
        </mxCell>
        <mxCell id="RxmuefyKAK2Er1jDZo_G-46" value="" style="endArrow=classic;html=1;rounded=0;" edge="1" parent="1">
          <mxGeometry width="50" height="50" relative="1" as="geometry">
            <mxPoint x="140" y="770" as="sourcePoint" />
            <mxPoint x="340" y="770" as="targetPoint" />
          </mxGeometry>
        </mxCell>
        <mxCell id="RxmuefyKAK2Er1jDZo_G-47" value="Aviso de privacidad&amp;nbsp;" style="text;html=1;align=center;verticalAlign=middle;resizable=0;points=[];autosize=1;strokeColor=none;fillColor=none;" vertex="1" parent="1">
          <mxGeometry x="175" y="740" width="130" height="30" as="geometry" />
        </mxCell>
        <mxCell id="RxmuefyKAK2Er1jDZo_G-48" value="" style="endArrow=classic;html=1;rounded=0;" edge="1" parent="1">
          <mxGeometry width="50" height="50" relative="1" as="geometry">
            <mxPoint x="340" y="794" as="sourcePoint" />
            <mxPoint x="540" y="794" as="targetPoint" />
          </mxGeometry>
        </mxCell>
        <mxCell id="RxmuefyKAK2Er1jDZo_G-49" value="Post del documento&amp;nbsp;" style="text;html=1;align=center;verticalAlign=middle;resizable=0;points=[];autosize=1;strokeColor=none;fillColor=none;" vertex="1" parent="1">
          <mxGeometry x="380" y="765" width="130" height="30" as="geometry" />
        </mxCell>
        <mxCell id="RxmuefyKAK2Er1jDZo_G-50" value="" style="endArrow=classic;html=1;rounded=0;" edge="1" parent="1">
          <mxGeometry width="50" height="50" relative="1" as="geometry">
            <mxPoint x="540" y="820" as="sourcePoint" />
            <mxPoint x="740" y="820" as="targetPoint" />
          </mxGeometry>
        </mxCell>
        <mxCell id="RxmuefyKAK2Er1jDZo_G-51" value="Post del documento" style="text;html=1;align=center;verticalAlign=middle;resizable=0;points=[];autosize=1;strokeColor=none;fillColor=none;" vertex="1" parent="1">
          <mxGeometry x="585" y="790" width="130" height="30" as="geometry" />
        </mxCell>
        <mxCell id="RxmuefyKAK2Er1jDZo_G-52" value="" style="endArrow=none;html=1;rounded=0;startFill=1;startArrow=classic;" edge="1" parent="1">
          <mxGeometry width="50" height="50" relative="1" as="geometry">
            <mxPoint x="540" y="860" as="sourcePoint" />
            <mxPoint x="740" y="860" as="targetPoint" />
          </mxGeometry>
        </mxCell>
        <mxCell id="RxmuefyKAK2Er1jDZo_G-53" value="Documento" style="text;html=1;align=center;verticalAlign=middle;resizable=0;points=[];autosize=1;strokeColor=none;fillColor=none;" vertex="1" parent="1">
          <mxGeometry x="610" y="838" width="80" height="30" as="geometry" />
        </mxCell>
        <mxCell id="RxmuefyKAK2Er1jDZo_G-54" value="" style="endArrow=none;html=1;rounded=0;startFill=1;startArrow=classic;" edge="1" parent="1">
          <mxGeometry width="50" height="50" relative="1" as="geometry">
            <mxPoint x="340" y="880" as="sourcePoint" />
            <mxPoint x="540" y="880" as="targetPoint" />
          </mxGeometry>
        </mxCell>
        <mxCell id="RxmuefyKAK2Er1jDZo_G-55" value="Documento" style="text;html=1;align=center;verticalAlign=middle;resizable=0;points=[];autosize=1;strokeColor=none;fillColor=none;" vertex="1" parent="1">
          <mxGeometry x="400" y="850" width="80" height="30" as="geometry" />
        </mxCell>
        <mxCell id="RxmuefyKAK2Er1jDZo_G-56" value="" style="endArrow=none;html=1;rounded=0;startFill=1;startArrow=classic;" edge="1" parent="1">
          <mxGeometry width="50" height="50" relative="1" as="geometry">
            <mxPoint x="140" y="900" as="sourcePoint" />
            <mxPoint x="340" y="900" as="targetPoint" />
          </mxGeometry>
        </mxCell>
        <mxCell id="RxmuefyKAK2Er1jDZo_G-57" value="Ve documento&amp;nbsp;" style="text;html=1;align=center;verticalAlign=middle;resizable=0;points=[];autosize=1;strokeColor=none;fillColor=none;" vertex="1" parent="1">
          <mxGeometry x="175" y="860" width="100" height="30" as="geometry" />
        </mxCell>
        <mxCell id="RxmuefyKAK2Er1jDZo_G-58" value="" style="endArrow=classic;html=1;rounded=0;" edge="1" parent="1">
          <mxGeometry width="50" height="50" relative="1" as="geometry">
            <mxPoint x="140" y="970" as="sourcePoint" />
            <mxPoint x="340" y="970" as="targetPoint" />
          </mxGeometry>
        </mxCell>
        <mxCell id="RxmuefyKAK2Er1jDZo_G-59" value="Editar perfil" style="text;html=1;align=center;verticalAlign=middle;resizable=0;points=[];autosize=1;strokeColor=none;fillColor=none;" vertex="1" parent="1">
          <mxGeometry x="200" y="940" width="80" height="30" as="geometry" />
        </mxCell>
        <mxCell id="RxmuefyKAK2Er1jDZo_G-60" value="" style="endArrow=classic;html=1;rounded=0;edgeStyle=orthogonalEdgeStyle;curved=1;" edge="1" parent="1">
          <mxGeometry width="50" height="50" relative="1" as="geometry">
            <mxPoint x="340" y="980" as="sourcePoint" />
            <mxPoint x="340" y="1000" as="targetPoint" />
            <Array as="points">
              <mxPoint x="370" y="980" />
              <mxPoint x="370" y="1000" />
            </Array>
          </mxGeometry>
        </mxCell>
        <mxCell id="RxmuefyKAK2Er1jDZo_G-61" value="" style="endArrow=none;html=1;rounded=0;startFill=1;startArrow=classic;" edge="1" parent="1">
          <mxGeometry width="50" height="50" relative="1" as="geometry">
            <mxPoint x="140" y="1020" as="sourcePoint" />
            <mxPoint x="340" y="1020" as="targetPoint" />
          </mxGeometry>
        </mxCell>
        <mxCell id="RxmuefyKAK2Er1jDZo_G-62" value="Pantalla de edición&amp;nbsp;" style="text;html=1;align=center;verticalAlign=middle;resizable=0;points=[];autosize=1;strokeColor=none;fillColor=none;" vertex="1" parent="1">
          <mxGeometry x="155" y="988" width="130" height="30" as="geometry" />
        </mxCell>
        <mxCell id="RxmuefyKAK2Er1jDZo_G-64" value="" style="endArrow=classic;html=1;rounded=0;" edge="1" parent="1">
          <mxGeometry width="50" height="50" relative="1" as="geometry">
            <mxPoint x="140" y="1078" as="sourcePoint" />
            <mxPoint x="340" y="1078" as="targetPoint" />
          </mxGeometry>
        </mxCell>
        <mxCell id="RxmuefyKAK2Er1jDZo_G-65" value="Editar imagen&amp;nbsp;" style="text;html=1;align=center;verticalAlign=middle;resizable=0;points=[];autosize=1;strokeColor=none;fillColor=none;" vertex="1" parent="1">
          <mxGeometry x="170" y="1048" width="100" height="30" as="geometry" />
        </mxCell>
        <mxCell id="RxmuefyKAK2Er1jDZo_G-69" value="" style="endArrow=classic;html=1;rounded=0;" edge="1" parent="1">
          <mxGeometry width="50" height="50" relative="1" as="geometry">
            <mxPoint x="340" y="1100" as="sourcePoint" />
            <mxPoint x="540" y="1100" as="targetPoint" />
          </mxGeometry>
        </mxCell>
        <mxCell id="RxmuefyKAK2Er1jDZo_G-70" value="Post de la imagen&amp;nbsp;" style="text;html=1;align=center;verticalAlign=middle;resizable=0;points=[];autosize=1;strokeColor=none;fillColor=none;" vertex="1" parent="1">
          <mxGeometry x="370" y="1068" width="120" height="30" as="geometry" />
        </mxCell>
        <mxCell id="RxmuefyKAK2Er1jDZo_G-71" value="" style="endArrow=classic;html=1;rounded=0;" edge="1" parent="1">
          <mxGeometry width="50" height="50" relative="1" as="geometry">
            <mxPoint x="540" y="1120" as="sourcePoint" />
            <mxPoint x="740" y="1120" as="targetPoint" />
          </mxGeometry>
        </mxCell>
        <mxCell id="RxmuefyKAK2Er1jDZo_G-72" value="Post de la imagen&amp;nbsp;" style="text;html=1;align=center;verticalAlign=middle;resizable=0;points=[];autosize=1;strokeColor=none;fillColor=none;" vertex="1" parent="1">
          <mxGeometry x="570" y="1090" width="120" height="30" as="geometry" />
        </mxCell>
        <mxCell id="RxmuefyKAK2Er1jDZo_G-73" value="" style="endArrow=none;html=1;rounded=0;startFill=1;startArrow=classic;" edge="1" parent="1">
          <mxGeometry width="50" height="50" relative="1" as="geometry">
            <mxPoint x="540" y="1220" as="sourcePoint" />
            <mxPoint x="740" y="1220" as="targetPoint" />
          </mxGeometry>
        </mxCell>
        <mxCell id="RxmuefyKAK2Er1jDZo_G-74" value="Credenciales de la imagen" style="text;html=1;align=center;verticalAlign=middle;resizable=0;points=[];autosize=1;strokeColor=none;fillColor=none;" vertex="1" parent="1">
          <mxGeometry x="560" y="1188" width="170" height="30" as="geometry" />
        </mxCell>
        <mxCell id="RxmuefyKAK2Er1jDZo_G-75" value="" style="endArrow=none;html=1;rounded=0;startFill=1;startArrow=classic;" edge="1" parent="1">
          <mxGeometry width="50" height="50" relative="1" as="geometry">
            <mxPoint x="540" y="1260" as="sourcePoint" />
            <mxPoint x="740" y="1260" as="targetPoint" />
          </mxGeometry>
        </mxCell>
        <mxCell id="RxmuefyKAK2Er1jDZo_G-76" value="Error 404" style="text;html=1;align=center;verticalAlign=middle;resizable=0;points=[];autosize=1;strokeColor=none;fillColor=none;" vertex="1" parent="1">
          <mxGeometry x="600" y="1228" width="70" height="30" as="geometry" />
        </mxCell>
        <mxCell id="RxmuefyKAK2Er1jDZo_G-77" value="" style="endArrow=none;html=1;rounded=0;startFill=1;startArrow=classic;" edge="1" parent="1">
          <mxGeometry width="50" height="50" relative="1" as="geometry">
            <mxPoint x="340" y="1242.55" as="sourcePoint" />
            <mxPoint x="540" y="1242.55" as="targetPoint" />
          </mxGeometry>
        </mxCell>
        <mxCell id="RxmuefyKAK2Er1jDZo_G-78" value="Credenciales de la imagen" style="text;html=1;align=center;verticalAlign=middle;resizable=0;points=[];autosize=1;strokeColor=none;fillColor=none;" vertex="1" parent="1">
          <mxGeometry x="360" y="1210" width="170" height="30" as="geometry" />
        </mxCell>
        <mxCell id="RxmuefyKAK2Er1jDZo_G-79" value="" style="endArrow=none;html=1;rounded=0;startFill=1;startArrow=classic;" edge="1" parent="1">
          <mxGeometry width="50" height="50" relative="1" as="geometry">
            <mxPoint x="140" y="1270" as="sourcePoint" />
            <mxPoint x="340" y="1270" as="targetPoint" />
          </mxGeometry>
        </mxCell>
        <mxCell id="RxmuefyKAK2Er1jDZo_G-80" value="ver imagen actual" style="text;html=1;align=center;verticalAlign=middle;resizable=0;points=[];autosize=1;strokeColor=none;fillColor=none;" vertex="1" parent="1">
          <mxGeometry x="175" y="1240" width="120" height="30" as="geometry" />
        </mxCell>
        <mxCell id="RxmuefyKAK2Er1jDZo_G-81" value="" style="endArrow=classic;html=1;rounded=0;" edge="1" parent="1">
          <mxGeometry width="50" height="50" relative="1" as="geometry">
            <mxPoint x="135" y="1310" as="sourcePoint" />
            <mxPoint x="335" y="1310" as="targetPoint" />
          </mxGeometry>
        </mxCell>
        <mxCell id="RxmuefyKAK2Er1jDZo_G-82" value="Cambiar imagen&amp;nbsp;" style="text;html=1;align=center;verticalAlign=middle;resizable=0;points=[];autosize=1;strokeColor=none;fillColor=none;" vertex="1" parent="1">
          <mxGeometry x="170" y="1278" width="110" height="30" as="geometry" />
        </mxCell>
        <mxCell id="RxmuefyKAK2Er1jDZo_G-83" value="" style="endArrow=classic;html=1;rounded=0;" edge="1" parent="1">
          <mxGeometry width="50" height="50" relative="1" as="geometry">
            <mxPoint x="340" y="1332" as="sourcePoint" />
            <mxPoint x="540" y="1332" as="targetPoint" />
          </mxGeometry>
        </mxCell>
        <mxCell id="RxmuefyKAK2Er1jDZo_G-84" value="Post de la imagen&amp;nbsp;" style="text;html=1;align=center;verticalAlign=middle;resizable=0;points=[];autosize=1;strokeColor=none;fillColor=none;" vertex="1" parent="1">
          <mxGeometry x="370" y="1300" width="120" height="30" as="geometry" />
        </mxCell>
        <mxCell id="RxmuefyKAK2Er1jDZo_G-85" value="" style="endArrow=classic;html=1;rounded=0;" edge="1" parent="1">
          <mxGeometry width="50" height="50" relative="1" as="geometry">
            <mxPoint x="540" y="1352" as="sourcePoint" />
            <mxPoint x="740" y="1352" as="targetPoint" />
          </mxGeometry>
        </mxCell>
        <mxCell id="RxmuefyKAK2Er1jDZo_G-86" value="Post de la imagen&amp;nbsp;" style="text;html=1;align=center;verticalAlign=middle;resizable=0;points=[];autosize=1;strokeColor=none;fillColor=none;" vertex="1" parent="1">
          <mxGeometry x="570" y="1322" width="120" height="30" as="geometry" />
        </mxCell>
        <mxCell id="RxmuefyKAK2Er1jDZo_G-87" value="" style="endArrow=none;html=1;rounded=0;startFill=1;startArrow=classic;" edge="1" parent="1">
          <mxGeometry width="50" height="50" relative="1" as="geometry">
            <mxPoint x="540" y="1452" as="sourcePoint" />
            <mxPoint x="740" y="1452" as="targetPoint" />
          </mxGeometry>
        </mxCell>
        <mxCell id="RxmuefyKAK2Er1jDZo_G-88" value="Credenciales de la imagen" style="text;html=1;align=center;verticalAlign=middle;resizable=0;points=[];autosize=1;strokeColor=none;fillColor=none;" vertex="1" parent="1">
          <mxGeometry x="560" y="1420" width="170" height="30" as="geometry" />
        </mxCell>
        <mxCell id="RxmuefyKAK2Er1jDZo_G-89" value="" style="endArrow=none;html=1;rounded=0;startFill=1;startArrow=classic;" edge="1" parent="1">
          <mxGeometry width="50" height="50" relative="1" as="geometry">
            <mxPoint x="540" y="1492" as="sourcePoint" />
            <mxPoint x="740" y="1492" as="targetPoint" />
          </mxGeometry>
        </mxCell>
        <mxCell id="RxmuefyKAK2Er1jDZo_G-90" value="Error 404" style="text;html=1;align=center;verticalAlign=middle;resizable=0;points=[];autosize=1;strokeColor=none;fillColor=none;" vertex="1" parent="1">
          <mxGeometry x="600" y="1460" width="70" height="30" as="geometry" />
        </mxCell>
        <mxCell id="RxmuefyKAK2Er1jDZo_G-91" value="" style="endArrow=none;html=1;rounded=0;startFill=1;startArrow=classic;" edge="1" parent="1">
          <mxGeometry width="50" height="50" relative="1" as="geometry">
            <mxPoint x="340" y="1474.55" as="sourcePoint" />
            <mxPoint x="540" y="1474.55" as="targetPoint" />
          </mxGeometry>
        </mxCell>
        <mxCell id="RxmuefyKAK2Er1jDZo_G-92" value="Credenciales de la imagen" style="text;html=1;align=center;verticalAlign=middle;resizable=0;points=[];autosize=1;strokeColor=none;fillColor=none;" vertex="1" parent="1">
          <mxGeometry x="360" y="1442" width="170" height="30" as="geometry" />
        </mxCell>
        <mxCell id="RxmuefyKAK2Er1jDZo_G-93" value="" style="endArrow=none;html=1;rounded=0;startFill=1;startArrow=classic;" edge="1" parent="1">
          <mxGeometry width="50" height="50" relative="1" as="geometry">
            <mxPoint x="140" y="1490" as="sourcePoint" />
            <mxPoint x="340" y="1490" as="targetPoint" />
          </mxGeometry>
        </mxCell>
        <mxCell id="RxmuefyKAK2Er1jDZo_G-94" value="Mostrar imagen nueva&amp;nbsp;" style="text;html=1;align=center;verticalAlign=middle;resizable=0;points=[];autosize=1;strokeColor=none;fillColor=none;" vertex="1" parent="1">
          <mxGeometry x="165" y="1450" width="150" height="30" as="geometry" />
        </mxCell>
        <mxCell id="RxmuefyKAK2Er1jDZo_G-95" value="" style="endArrow=classic;html=1;rounded=0;" edge="1" parent="1">
          <mxGeometry width="50" height="50" relative="1" as="geometry">
            <mxPoint x="135" y="1550" as="sourcePoint" />
            <mxPoint x="335" y="1550" as="targetPoint" />
          </mxGeometry>
        </mxCell>
        <mxCell id="RxmuefyKAK2Er1jDZo_G-96" value="Campos del usuario&amp;nbsp;" style="text;html=1;align=center;verticalAlign=middle;resizable=0;points=[];autosize=1;strokeColor=none;fillColor=none;" vertex="1" parent="1">
          <mxGeometry x="165" y="1518" width="130" height="30" as="geometry" />
        </mxCell>
        <mxCell id="RxmuefyKAK2Er1jDZo_G-98" value="" style="endArrow=classic;html=1;rounded=0;" edge="1" parent="1">
          <mxGeometry width="50" height="50" relative="1" as="geometry">
            <mxPoint x="340" y="1672" as="sourcePoint" />
            <mxPoint x="540" y="1672" as="targetPoint" />
          </mxGeometry>
        </mxCell>
        <mxCell id="RxmuefyKAK2Er1jDZo_G-99" value="Post de información del usuario&amp;nbsp;" style="text;html=1;align=center;verticalAlign=middle;resizable=0;points=[];autosize=1;strokeColor=none;fillColor=none;" vertex="1" parent="1">
          <mxGeometry x="350" y="1640" width="190" height="30" as="geometry" />
        </mxCell>
        <mxCell id="RxmuefyKAK2Er1jDZo_G-100" value="" style="endArrow=classic;html=1;rounded=0;" edge="1" parent="1">
          <mxGeometry width="50" height="50" relative="1" as="geometry">
            <mxPoint x="545" y="1702" as="sourcePoint" />
            <mxPoint x="745" y="1702" as="targetPoint" />
          </mxGeometry>
        </mxCell>
        <mxCell id="RxmuefyKAK2Er1jDZo_G-101" value="Post de información del usuario&amp;nbsp;" style="text;html=1;align=center;verticalAlign=middle;resizable=0;points=[];autosize=1;strokeColor=none;fillColor=none;" vertex="1" parent="1">
          <mxGeometry x="550" y="1670" width="190" height="30" as="geometry" />
        </mxCell>
        <mxCell id="RxmuefyKAK2Er1jDZo_G-102" value="" style="endArrow=none;html=1;rounded=0;startFill=1;startArrow=classic;" edge="1" parent="1">
          <mxGeometry width="50" height="50" relative="1" as="geometry">
            <mxPoint x="540" y="1742" as="sourcePoint" />
            <mxPoint x="740" y="1742" as="targetPoint" />
          </mxGeometry>
        </mxCell>
        <mxCell id="RxmuefyKAK2Er1jDZo_G-103" value="Error 404" style="text;html=1;align=center;verticalAlign=middle;resizable=0;points=[];autosize=1;strokeColor=none;fillColor=none;" vertex="1" parent="1">
          <mxGeometry x="600" y="1712" width="70" height="30" as="geometry" />
        </mxCell>
        <mxCell id="RxmuefyKAK2Er1jDZo_G-104" value="" style="endArrow=none;html=1;rounded=0;startFill=1;startArrow=classic;" edge="1" parent="1">
          <mxGeometry width="50" height="50" relative="1" as="geometry">
            <mxPoint x="540" y="1784" as="sourcePoint" />
            <mxPoint x="740" y="1784" as="targetPoint" />
          </mxGeometry>
        </mxCell>
        <mxCell id="RxmuefyKAK2Er1jDZo_G-105" value="Post con la información actualizada&amp;nbsp;" style="text;html=1;align=center;verticalAlign=middle;resizable=0;points=[];autosize=1;strokeColor=none;fillColor=none;" vertex="1" parent="1">
          <mxGeometry x="540" y="1754" width="220" height="30" as="geometry" />
        </mxCell>
        <mxCell id="RxmuefyKAK2Er1jDZo_G-106" value="" style="endArrow=classic;html=1;rounded=0;edgeStyle=orthogonalEdgeStyle;curved=1;" edge="1" parent="1">
          <mxGeometry width="50" height="50" relative="1" as="geometry">
            <mxPoint x="340" y="1560" as="sourcePoint" />
            <mxPoint x="340" y="1580" as="targetPoint" />
            <Array as="points">
              <mxPoint x="370" y="1560" />
              <mxPoint x="370" y="1580" />
            </Array>
          </mxGeometry>
        </mxCell>
        <mxCell id="RxmuefyKAK2Er1jDZo_G-107" value="" style="endArrow=none;html=1;rounded=0;startFill=1;startArrow=classic;" edge="1" parent="1">
          <mxGeometry width="50" height="50" relative="1" as="geometry">
            <mxPoint x="140" y="1600" as="sourcePoint" />
            <mxPoint x="340" y="1600" as="targetPoint" />
          </mxGeometry>
        </mxCell>
        <mxCell id="RxmuefyKAK2Er1jDZo_G-108" value="Campos vacíos&amp;nbsp;" style="text;html=1;align=center;verticalAlign=middle;resizable=0;points=[];autosize=1;strokeColor=none;fillColor=none;" vertex="1" parent="1">
          <mxGeometry x="180" y="1570" width="110" height="30" as="geometry" />
        </mxCell>
        <mxCell id="RxmuefyKAK2Er1jDZo_G-109" value="" style="endArrow=classic;html=1;rounded=0;" edge="1" parent="1">
          <mxGeometry width="50" height="50" relative="1" as="geometry">
            <mxPoint x="135" y="1650" as="sourcePoint" />
            <mxPoint x="335" y="1650" as="targetPoint" />
          </mxGeometry>
        </mxCell>
        <mxCell id="RxmuefyKAK2Er1jDZo_G-110" value="Actualiza y envía&amp;nbsp;" style="text;html=1;align=center;verticalAlign=middle;resizable=0;points=[];autosize=1;strokeColor=none;fillColor=none;" vertex="1" parent="1">
          <mxGeometry x="180" y="1618" width="120" height="30" as="geometry" />
        </mxCell>
        <mxCell id="RxmuefyKAK2Er1jDZo_G-111" value="" style="endArrow=none;html=1;rounded=0;startFill=1;startArrow=classic;" edge="1" parent="1">
          <mxGeometry width="50" height="50" relative="1" as="geometry">
            <mxPoint x="340" y="1810" as="sourcePoint" />
            <mxPoint x="540" y="1810" as="targetPoint" />
          </mxGeometry>
        </mxCell>
        <mxCell id="RxmuefyKAK2Er1jDZo_G-112" value="Post con la información actualizada&amp;nbsp;" style="text;html=1;align=center;verticalAlign=middle;resizable=0;points=[];autosize=1;strokeColor=none;fillColor=none;" vertex="1" parent="1">
          <mxGeometry x="335" y="1780" width="220" height="30" as="geometry" />
        </mxCell>
        <mxCell id="RxmuefyKAK2Er1jDZo_G-113" value="" style="endArrow=none;html=1;rounded=0;startFill=1;startArrow=classic;" edge="1" parent="1">
          <mxGeometry width="50" height="50" relative="1" as="geometry">
            <mxPoint x="140" y="1830" as="sourcePoint" />
            <mxPoint x="340" y="1830" as="targetPoint" />
          </mxGeometry>
        </mxCell>
        <mxCell id="RxmuefyKAK2Er1jDZo_G-114" value="Cambios guardados&amp;nbsp;&amp;nbsp;" style="text;html=1;align=center;verticalAlign=middle;resizable=0;points=[];autosize=1;strokeColor=none;fillColor=none;" vertex="1" parent="1">
          <mxGeometry x="160" y="1798" width="140" height="30" as="geometry" />
        </mxCell>
        <mxCell id="RxmuefyKAK2Er1jDZo_G-115" value="" style="endArrow=classic;html=1;rounded=0;" edge="1" parent="1">
          <mxGeometry width="50" height="50" relative="1" as="geometry">
            <mxPoint x="135" y="1880" as="sourcePoint" />
            <mxPoint x="335" y="1880" as="targetPoint" />
          </mxGeometry>
        </mxCell>
        <mxCell id="RxmuefyKAK2Er1jDZo_G-116" value="Cambio de contraseña" style="text;html=1;align=center;verticalAlign=middle;resizable=0;points=[];autosize=1;strokeColor=none;fillColor=none;" vertex="1" parent="1">
          <mxGeometry x="165" y="1848" width="140" height="30" as="geometry" />
        </mxCell>
        <mxCell id="RxmuefyKAK2Er1jDZo_G-117" value="" style="endArrow=classic;html=1;rounded=0;edgeStyle=orthogonalEdgeStyle;curved=1;" edge="1" parent="1">
          <mxGeometry width="50" height="50" relative="1" as="geometry">
            <mxPoint x="340" y="1900" as="sourcePoint" />
            <mxPoint x="340" y="1920" as="targetPoint" />
            <Array as="points">
              <mxPoint x="370" y="1900" />
              <mxPoint x="370" y="1920" />
            </Array>
          </mxGeometry>
        </mxCell>
        <mxCell id="RxmuefyKAK2Er1jDZo_G-118" value="" style="endArrow=none;html=1;rounded=0;startFill=1;startArrow=classic;" edge="1" parent="1">
          <mxGeometry width="50" height="50" relative="1" as="geometry">
            <mxPoint x="135" y="1930" as="sourcePoint" />
            <mxPoint x="335" y="1930" as="targetPoint" />
          </mxGeometry>
        </mxCell>
        <mxCell id="RxmuefyKAK2Er1jDZo_G-119" value="Solicita correo" style="text;html=1;align=center;verticalAlign=middle;resizable=0;points=[];autosize=1;strokeColor=none;fillColor=none;" vertex="1" parent="1">
          <mxGeometry x="180" y="1898" width="100" height="30" as="geometry" />
        </mxCell>
        <mxCell id="RxmuefyKAK2Er1jDZo_G-120" value="" style="endArrow=none;html=1;rounded=0;startFill=1;startArrow=classic;" edge="1" parent="1">
          <mxGeometry width="50" height="50" relative="1" as="geometry">
            <mxPoint x="540" y="2390" as="sourcePoint" />
            <mxPoint x="740" y="2390" as="targetPoint" />
          </mxGeometry>
        </mxCell>
        <mxCell id="RxmuefyKAK2Er1jDZo_G-122" value="" style="endArrow=classic;html=1;rounded=0;" edge="1" parent="1">
          <mxGeometry width="50" height="50" relative="1" as="geometry">
            <mxPoint x="135" y="1980" as="sourcePoint" />
            <mxPoint x="335" y="1980" as="targetPoint" />
          </mxGeometry>
        </mxCell>
        <mxCell id="RxmuefyKAK2Er1jDZo_G-123" value="Escribe correo" style="text;html=1;align=center;verticalAlign=middle;resizable=0;points=[];autosize=1;strokeColor=none;fillColor=none;" vertex="1" parent="1">
          <mxGeometry x="190" y="1948" width="100" height="30" as="geometry" />
        </mxCell>
        <mxCell id="RxmuefyKAK2Er1jDZo_G-124" value="" style="endArrow=classic;html=1;rounded=0;" edge="1" parent="1">
          <mxGeometry width="50" height="50" relative="1" as="geometry">
            <mxPoint x="340" y="2160" as="sourcePoint" />
            <mxPoint x="540" y="2160" as="targetPoint" />
          </mxGeometry>
        </mxCell>
        <mxCell id="RxmuefyKAK2Er1jDZo_G-125" value="" style="endArrow=classic;html=1;rounded=0;" edge="1" parent="1">
          <mxGeometry width="50" height="50" relative="1" as="geometry">
            <mxPoint x="340" y="2010" as="sourcePoint" />
            <mxPoint x="540" y="2010" as="targetPoint" />
          </mxGeometry>
        </mxCell>
        <mxCell id="RxmuefyKAK2Er1jDZo_G-126" value="Post de verificación de correo" style="text;html=1;align=center;verticalAlign=middle;resizable=0;points=[];autosize=1;strokeColor=none;fillColor=none;" vertex="1" parent="1">
          <mxGeometry x="350" y="1978" width="180" height="30" as="geometry" />
        </mxCell>
        <mxCell id="RxmuefyKAK2Er1jDZo_G-127" value="" style="endArrow=none;html=1;rounded=0;startFill=1;startArrow=classic;" edge="1" parent="1">
          <mxGeometry width="50" height="50" relative="1" as="geometry">
            <mxPoint x="345" y="2050" as="sourcePoint" />
            <mxPoint x="545" y="2050" as="targetPoint" />
          </mxGeometry>
        </mxCell>
        <mxCell id="RxmuefyKAK2Er1jDZo_G-128" value="Valida correo" style="text;html=1;align=center;verticalAlign=middle;resizable=0;points=[];autosize=1;strokeColor=none;fillColor=none;" vertex="1" parent="1">
          <mxGeometry x="395" y="2018" width="90" height="30" as="geometry" />
        </mxCell>
        <mxCell id="RxmuefyKAK2Er1jDZo_G-129" value="" style="endArrow=none;html=1;rounded=0;startFill=1;startArrow=classic;" edge="1" parent="1">
          <mxGeometry width="50" height="50" relative="1" as="geometry">
            <mxPoint x="140" y="2080" as="sourcePoint" />
            <mxPoint x="340" y="2080" as="targetPoint" />
          </mxGeometry>
        </mxCell>
        <mxCell id="RxmuefyKAK2Er1jDZo_G-130" value="Solicita codigo" style="text;html=1;align=center;verticalAlign=middle;resizable=0;points=[];autosize=1;strokeColor=none;fillColor=none;" vertex="1" parent="1">
          <mxGeometry x="150" y="2048" width="100" height="30" as="geometry" />
        </mxCell>
        <mxCell id="RxmuefyKAK2Er1jDZo_G-131" value="" style="endArrow=classic;html=1;rounded=0;" edge="1" parent="1">
          <mxGeometry width="50" height="50" relative="1" as="geometry">
            <mxPoint x="135" y="2130" as="sourcePoint" />
            <mxPoint x="335" y="2130" as="targetPoint" />
          </mxGeometry>
        </mxCell>
        <mxCell id="RxmuefyKAK2Er1jDZo_G-132" value="Coloca código&amp;nbsp;" style="text;html=1;align=center;verticalAlign=middle;resizable=0;points=[];autosize=1;strokeColor=none;fillColor=none;" vertex="1" parent="1">
          <mxGeometry x="180" y="2098" width="100" height="30" as="geometry" />
        </mxCell>
        <mxCell id="RxmuefyKAK2Er1jDZo_G-133" value="Valida codigo" style="text;html=1;align=center;verticalAlign=middle;resizable=0;points=[];autosize=1;strokeColor=none;fillColor=none;" vertex="1" parent="1">
          <mxGeometry x="380" y="2128" width="90" height="30" as="geometry" />
        </mxCell>
        <mxCell id="RxmuefyKAK2Er1jDZo_G-134" value="" style="endArrow=none;html=1;rounded=0;startFill=1;startArrow=classic;" edge="1" parent="1">
          <mxGeometry width="50" height="50" relative="1" as="geometry">
            <mxPoint x="340" y="2200" as="sourcePoint" />
            <mxPoint x="540" y="2200" as="targetPoint" />
          </mxGeometry>
        </mxCell>
        <mxCell id="RxmuefyKAK2Er1jDZo_G-135" value="Regresa validación&amp;nbsp;" style="text;html=1;align=center;verticalAlign=middle;resizable=0;points=[];autosize=1;strokeColor=none;fillColor=none;" vertex="1" parent="1">
          <mxGeometry x="355" y="2168" width="130" height="30" as="geometry" />
        </mxCell>
        <mxCell id="RxmuefyKAK2Er1jDZo_G-136" value="" style="endArrow=none;html=1;rounded=0;startFill=1;startArrow=classic;" edge="1" parent="1">
          <mxGeometry width="50" height="50" relative="1" as="geometry">
            <mxPoint x="135" y="2230" as="sourcePoint" />
            <mxPoint x="335" y="2230" as="targetPoint" />
          </mxGeometry>
        </mxCell>
        <mxCell id="RxmuefyKAK2Er1jDZo_G-137" value="Solicita nueva contraseña" style="text;html=1;align=center;verticalAlign=middle;resizable=0;points=[];autosize=1;strokeColor=none;fillColor=none;" vertex="1" parent="1">
          <mxGeometry x="155" y="2198" width="160" height="30" as="geometry" />
        </mxCell>
        <mxCell id="RxmuefyKAK2Er1jDZo_G-138" value="" style="endArrow=classic;html=1;rounded=0;" edge="1" parent="1">
          <mxGeometry width="50" height="50" relative="1" as="geometry">
            <mxPoint x="130" y="2270" as="sourcePoint" />
            <mxPoint x="330" y="2270" as="targetPoint" />
          </mxGeometry>
        </mxCell>
        <mxCell id="RxmuefyKAK2Er1jDZo_G-139" value="Nueva contraseña&amp;nbsp;" style="text;html=1;align=center;verticalAlign=middle;resizable=0;points=[];autosize=1;strokeColor=none;fillColor=none;" vertex="1" parent="1">
          <mxGeometry x="165" y="2238" width="120" height="30" as="geometry" />
        </mxCell>
        <mxCell id="RxmuefyKAK2Er1jDZo_G-140" value="" style="endArrow=classic;html=1;rounded=0;" edge="1" parent="1">
          <mxGeometry width="50" height="50" relative="1" as="geometry">
            <mxPoint x="340" y="2290" as="sourcePoint" />
            <mxPoint x="540" y="2290" as="targetPoint" />
          </mxGeometry>
        </mxCell>
        <mxCell id="RxmuefyKAK2Er1jDZo_G-141" value="Post de contraseña" style="text;html=1;align=center;verticalAlign=middle;resizable=0;points=[];autosize=1;strokeColor=none;fillColor=none;" vertex="1" parent="1">
          <mxGeometry x="335" y="2258" width="130" height="30" as="geometry" />
        </mxCell>
        <mxCell id="RxmuefyKAK2Er1jDZo_G-142" value="" style="endArrow=classic;html=1;rounded=0;" edge="1" parent="1">
          <mxGeometry width="50" height="50" relative="1" as="geometry">
            <mxPoint x="540" y="2320" as="sourcePoint" />
            <mxPoint x="740" y="2320" as="targetPoint" />
          </mxGeometry>
        </mxCell>
        <mxCell id="RxmuefyKAK2Er1jDZo_G-143" value="Post de contraseña&amp;nbsp;" style="text;html=1;align=center;verticalAlign=middle;resizable=0;points=[];autosize=1;strokeColor=none;fillColor=none;" vertex="1" parent="1">
          <mxGeometry x="535" y="2288" width="130" height="30" as="geometry" />
        </mxCell>
        <mxCell id="RxmuefyKAK2Er1jDZo_G-144" value="Regresa confirmación&amp;nbsp;" style="text;html=1;align=center;verticalAlign=middle;resizable=0;points=[];autosize=1;strokeColor=none;fillColor=none;" vertex="1" parent="1">
          <mxGeometry x="565" y="2360" width="140" height="30" as="geometry" />
        </mxCell>
        <mxCell id="RxmuefyKAK2Er1jDZo_G-145" value="" style="endArrow=none;html=1;rounded=0;startFill=1;startArrow=classic;" edge="1" parent="1">
          <mxGeometry width="50" height="50" relative="1" as="geometry">
            <mxPoint x="340" y="2410" as="sourcePoint" />
            <mxPoint x="540" y="2410" as="targetPoint" />
          </mxGeometry>
        </mxCell>
        <mxCell id="RxmuefyKAK2Er1jDZo_G-146" value="Regresa confirmación&amp;nbsp;" style="text;html=1;align=center;verticalAlign=middle;resizable=0;points=[];autosize=1;strokeColor=none;fillColor=none;" vertex="1" parent="1">
          <mxGeometry x="370" y="2380" width="140" height="30" as="geometry" />
        </mxCell>
        <mxCell id="RxmuefyKAK2Er1jDZo_G-147" value="" style="endArrow=none;html=1;rounded=0;startFill=1;startArrow=classic;" edge="1" parent="1">
          <mxGeometry width="50" height="50" relative="1" as="geometry">
            <mxPoint x="130" y="2430" as="sourcePoint" />
            <mxPoint x="330" y="2430" as="targetPoint" />
          </mxGeometry>
        </mxCell>
        <mxCell id="RxmuefyKAK2Er1jDZo_G-148" value="Regresa confirmación&amp;nbsp;" style="text;html=1;align=center;verticalAlign=middle;resizable=0;points=[];autosize=1;strokeColor=none;fillColor=none;" vertex="1" parent="1">
          <mxGeometry x="155" y="2390" width="140" height="30" as="geometry" />
        </mxCell>
      </root>
    </mxGraphModel>
  </diagram>
</mxfile>
